<mxfile host="app.diagrams.net" modified="2023-10-31T04:31:09.917Z" agent="Mozilla/5.0 (Windows NT 10.0; Win64; x64) AppleWebKit/537.36 (KHTML, like Gecko) Chrome/118.0.0.0 Safari/537.36" version="22.0.8" etag="vwpas4U0FYfkW7oVKFyR" type="github">
  <diagram name="第 1 页" id="5PvzRw4xC6kZkrErO5Yp">
    <mxGraphModel>
      <root>
        <mxCell id="0" />
        <mxCell id="1" parent="0" />
      </root>
    </mxGraphModel>
  </diagram>
</mxfile>
